<svg width="28" height="24" viewBox="0 0 28 24" fill="none" xmlns="http://www.w3.org/2000/svg">
<path d="M9.3036 11.8545C7.7216 11.8545 5.95294 11.6795 4.8236 10.3892C3.87394 9.30416 3.56711 7.6265 3.88444 5.26517C4.32777 1.96817 6.35311 0 9.30477 0C12.2564 0 14.2829 1.96817 14.7251 5.26517C15.0424 7.6265 14.7344 9.30183 13.7848 10.3892C12.6531 11.6795 10.8856 11.8533 9.30477 11.8533L9.3036 11.8545ZM16.1274 23.3462H2.47977C1.70627 23.3462 1.02144 23.0195 0.554775 22.4292C0.0624418 21.8062 -0.117225 20.9475 0.076442 20.1332C1.04944 16.0148 4.84344 13.1367 9.30244 13.1367C13.7614 13.1367 17.5554 16.0137 18.5308 20.1332C18.7221 20.9475 18.5424 21.8062 18.0501 22.428C17.5834 23.0172 16.9009 23.3438 16.1274 23.3438V23.3462Z" fill="white"/>
<path d="M18.3036 11.8545C16.7216 11.8545 14.9529 11.6795 13.8236 10.3892C12.8739 9.30416 12.5671 7.6265 12.8844 5.26517C13.3278 1.96817 15.3531 0 18.3048 0C21.2564 0 23.2829 1.96817 23.7251 5.26517C24.0424 7.6265 23.7344 9.30183 22.7848 10.3892C21.6531 11.6795 19.8856 11.8533 18.3048 11.8533L18.3036 11.8545ZM25.1274 23.3462H11.4798C10.7063 23.3462 10.0214 23.0195 9.55478 22.4292C9.06244 21.8062 8.88278 20.9475 9.07644 20.1332C10.0494 16.0148 13.8434 13.1367 18.3024 13.1367C22.7614 13.1367 26.5554 16.0137 27.5308 20.1332C27.7221 20.9475 27.5424 21.8062 27.0501 22.428C26.5834 23.0172 25.9009 23.3438 25.1274 23.3438V23.3462Z" fill="white"/>
</svg>
