<svg width="28" height="24" viewBox="0 0 28 24" fill="none" xmlns="http://www.w3.org/2000/svg">
<path d="M0.563046 20.2481L0.562876 20.2489C0.402525 20.9231 0.555021 21.623 0.947018 22.1191L0.563046 20.2481ZM0.563046 20.2481C1.47878 16.3722 5.05762 13.6367 9.30244 13.6367C13.547 13.6367 17.1259 16.3708 18.0441 20.2478C18.2026 20.9229 18.0497 21.623 17.6581 22.1176C17.2887 22.5839 16.7522 22.8438 16.1274 22.8438H15.6274M0.563046 20.2481L15.6274 22.8438M15.6274 22.8438V22.8462M15.6274 22.8438V22.8462M15.6274 22.8462H2.47977C1.85456 22.8462 1.31606 22.5859 0.947066 22.1192L15.6274 22.8462ZM5.19985 10.0599L5.19984 10.0599C4.39228 9.13721 4.06968 7.64081 4.37998 5.3318C4.59021 3.76837 5.16905 2.56441 6.00239 1.75484C6.83104 0.94982 7.94633 0.5 9.30477 0.5C10.6632 0.5 11.7788 0.949835 12.6076 1.75487C13.4411 2.56442 14.0199 3.76832 14.2295 5.33163L14.2296 5.33176C14.5397 7.63991 14.2165 9.1346 13.4084 10.06C12.4376 11.1664 10.8875 11.3533 9.30477 11.3533H9.09822L9.09818 11.3534C7.58628 11.3365 6.12632 11.1184 5.19985 10.0599Z" fill="#171717" stroke="white"/>
<path d="M9.56305 20.2481L9.56288 20.2489C9.40253 20.9231 9.55502 21.623 9.94702 22.1191L9.56305 20.2481ZM9.56305 20.2481C10.4788 16.3722 14.0576 13.6367 18.3024 13.6367C22.547 13.6367 26.1259 16.3708 27.0441 20.2478C27.2026 20.9229 27.0497 21.623 26.6581 22.1176C26.2887 22.5839 25.7522 22.8438 25.1274 22.8438H24.6274M9.56305 20.2481L24.6274 22.8438M24.6274 22.8438V22.8462M24.6274 22.8438V22.8462M24.6274 22.8462H11.4798C10.8546 22.8462 10.3161 22.5859 9.94707 22.1192L24.6274 22.8462ZM14.1999 10.0599L14.1998 10.0599C13.3923 9.13721 13.0697 7.64081 13.38 5.3318C13.5902 3.76837 14.169 2.56441 15.0024 1.75484C15.831 0.94982 16.9463 0.5 18.3048 0.5C19.6632 0.5 20.7788 0.949835 21.6076 1.75487C22.4411 2.56442 23.0199 3.76832 23.2295 5.33163L23.2296 5.33176C23.5397 7.63991 23.2165 9.1346 22.4084 10.06C21.4376 11.1664 19.8875 11.3533 18.3048 11.3533H18.0982L18.0982 11.3534C16.5863 11.3365 15.1263 11.1184 14.1999 10.0599Z" fill="#171717" stroke="white"/>
</svg>
